<svg width="512" height="512" viewBox="0 0 512 512" fill="none" xmlns="http://www.w3.org/2000/svg">
<circle cx="256" cy="256" r="256" fill="white"/>
<path d="M306.727 375.005H316.575V377.968H211.206V375.005H221.054C230.409 375.005 235.825 369.573 235.825 360.191V60.9504C192.496 67.3697 153.598 106.873 147.197 131.563L144.735 141.439L141.781 140.452L163.446 57H364.335L386 140.452L383.538 141.439L380.584 131.563C374.183 106.873 335.285 67.3697 291.956 60.9504V360.191C291.956 369.573 297.372 375.005 306.727 375.005Z" fill="#664C31"/>
<path d="M380.574 342.908L383.528 344.39C365.311 419.447 314.103 455 261.419 455C194.456 455 127 397.226 127 290.072C127 208.596 174.761 127.613 281.606 127.613C324.936 127.613 353.493 151.809 373.681 181.437L281.606 256.988L279.637 254.519L286.53 248.593C305.733 232.792 312.134 208.596 312.134 191.313C312.134 183.412 313.119 166.129 294.408 148.352C285.053 139.464 271.267 135.02 253.541 135.02C198.887 135.02 177.222 188.844 177.222 249.581C177.222 360.191 237.785 414.015 292.931 414.015C330.352 414.015 365.311 390.313 380.574 342.908Z" fill="#664C31"/>
</svg>
